<svg xmlns="http://www.w3.org/2000/svg" xmlns:xlink="http://www.w3.org/1999/xlink" width="1080" zoomAndPan="magnify" viewBox="0 0 810 809.999993" height="1080" preserveAspectRatio="xMidYMid meet" version="1.0"><defs><clipPath id="c909d9ca0e"><path d="M 0 4.613281 L 810 4.613281 L 810 805.488281 L 0 805.488281 Z M 0 4.613281 " clip-rule="nonzero"/></clipPath></defs><g clip-path="url(#c909d9ca0e)"><path fill="#333333" d="M 690.695312 205.636719 L 579.753906 141.574219 L 579.753906 269.699219 Z M 692.085938 447.355469 L 579.765625 382.492188 L 579.765625 404.25 L 692.085938 469.113281 Z M 579.765625 376.054688 L 692.085938 440.914062 L 692.085938 420.761719 L 579.765625 355.90625 Z M 692.085938 394.175781 L 579.765625 329.316406 L 579.765625 349.472656 L 692.085938 414.324219 Z M 692.085938 367.589844 L 579.765625 302.726562 L 579.765625 322.878906 L 692.085938 387.742188 Z M 692.085938 339.382812 C 654.636719 317.796875 617.199219 296.140625 579.765625 274.523438 L 579.765625 296.296875 L 692.085938 361.148438 Z M 635.925781 37.847656 C 655.585938 49.175781 675.234375 60.53125 694.878906 71.890625 L 694.878906 141.574219 L 575.585938 72.691406 Z M 635.925781 104.320312 L 690.699219 72.691406 L 635.925781 41.0625 L 581.152344 72.691406 Z M 692.085938 75.105469 L 638.707031 105.925781 L 692.085938 136.75 Z M 231.617188 261.230469 L 119.292969 196.371094 L 119.292969 216.523438 L 231.617188 281.382812 Z M 231.617188 234.644531 L 119.292969 169.785156 L 119.292969 189.9375 L 231.617188 254.792969 Z M 231.617188 208.050781 L 119.292969 143.1875 L 119.292969 163.347656 L 231.617188 228.207031 Z M 251.859375 193.152344 L 139.527344 128.285156 L 122.074219 138.355469 L 234.410156 203.222656 Z M 274.882812 179.855469 L 162.546875 114.988281 L 145.101562 125.0625 L 257.429688 189.929688 Z M 345.351562 139.167969 L 233.015625 74.300781 L 214.171875 85.179688 L 326.507812 150.046875 Z M 234.410156 283.800781 L 279.753906 309.984375 L 298.597656 299.101562 L 234.410156 262.039062 Z M 252.550781 325.691406 L 234.410156 315.214844 L 234.410156 336.164062 Z M 234.410156 310.386719 L 256.730469 323.277344 L 275.574219 312.394531 L 234.410156 288.628906 Z M 461.847656 312.796875 L 349.527344 247.9375 L 349.527344 271.304688 L 461.847656 336.167969 Z M 461.847656 286.210938 L 349.527344 221.351562 L 349.527344 244.71875 L 461.847656 309.578125 Z M 461.847656 259.621094 L 349.527344 194.761719 L 349.527344 218.132812 L 461.847656 282.992188 Z M 281.820312 311.980469 L 394.175781 376.859375 L 414.414062 365.175781 L 302.050781 300.296875 Z M 368.367188 391.761719 L 256.023438 326.890625 L 235.796875 338.578125 L 348.136719 403.445312 Z M 258.808594 325.277344 L 371.152344 390.15625 L 391.386719 378.472656 L 279.03125 313.589844 Z M 231.617188 314.410156 L 119.292969 249.550781 L 119.292969 271.3125 L 231.617188 336.164062 Z M 119.292969 243.113281 L 231.617188 307.96875 L 231.617188 287.820312 L 119.292969 222.960938 Z M 297.902344 166.5625 L 185.570312 101.695312 L 168.121094 111.773438 L 280.453125 176.636719 Z M 191.144531 98.472656 L 303.476562 163.339844 L 320.933594 153.265625 L 208.597656 88.398438 Z M 321.621094 285.8125 L 234.410156 235.449219 L 234.410156 257.214844 L 302.777344 296.6875 Z M 234.410156 230.625 L 325.800781 283.398438 L 344.644531 272.511719 L 234.410156 208.855469 Z M 346.734375 193.953125 L 301.382812 167.765625 L 282.539062 178.644531 L 346.734375 215.714844 Z M 328.578125 152.0625 L 346.734375 162.542969 L 346.734375 141.578125 Z M 346.734375 167.363281 L 324.40625 154.472656 L 305.5625 165.355469 L 346.734375 189.125 Z M 259.511719 191.941406 L 346.734375 242.304688 L 346.734375 220.542969 L 278.359375 181.058594 Z M 346.734375 247.125 L 255.339844 194.351562 L 236.496094 205.234375 L 346.734375 268.890625 Z M 437.4375 351.878906 L 325.082031 287.003906 L 304.839844 298.6875 L 417.199219 363.566406 Z M 327.871094 285.398438 L 440.21875 350.273438 L 460.460938 338.585938 L 348.128906 273.714844 Z M 461.847656 233.035156 L 349.527344 168.175781 L 349.527344 191.542969 L 461.847656 256.402344 Z M 349.527344 164.953125 L 461.847656 229.816406 L 461.847656 206.433594 L 349.527344 141.574219 Z M 350.914062 139.167969 L 463.246094 204.03125 L 575.585938 139.167969 L 463.246094 74.300781 Z M 61.734375 437.484375 C 61.734375 460.175781 61.699219 482.871094 61.738281 505.566406 L 1.398438 540.402344 C 1.375 494.488281 1.390625 448.566406 1.390625 402.644531 Z M 57.5625 504.757812 L 4.179688 473.933594 L 4.179688 535.585938 Z M 4.179688 470.722656 L 58.957031 502.351562 L 58.953125 439.089844 L 4.171875 407.460938 Z M 61.738281 169.988281 L 61.738281 241.289062 L 0 205.636719 Z M 58.941406 174.8125 L 5.566406 205.636719 L 58.941406 236.457031 Z M 348.132812 4.613281 C 368.253906 16.207031 388.363281 27.839844 408.472656 39.460938 C 388.359375 51.074219 368.234375 62.667969 348.132812 74.300781 C 328.03125 62.667969 307.902344 51.074219 287.792969 39.460938 Z M 348.132812 7.832031 L 293.355469 39.460938 L 348.132812 71.089844 L 402.90625 39.460938 Z M 346.738281 405.859375 L 234.410156 340.996094 L 234.410156 470.722656 L 346.738281 535.582031 Z M 461.859375 602.0625 L 461.863281 470.722656 L 575.582031 405.050781 L 463.242188 340.1875 C 425.308594 362.023438 387.449219 383.992188 349.527344 405.855469 L 349.527344 537.199219 Z M 464.644531 499.734375 L 464.644531 521.492188 L 576.96875 456.628906 L 576.96875 434.871094 Z M 576.96875 407.46875 L 464.644531 472.332031 L 464.644531 494.902344 L 576.96875 430.039062 Z M 464.644531 548.078125 L 576.96875 483.21875 L 576.96875 461.457031 L 464.644531 526.320312 Z M 464.644531 574.667969 L 576.96875 509.804688 L 576.96875 488.046875 L 464.644531 552.90625 Z M 576.96875 514.632812 L 464.640625 579.5 L 464.640625 602.0625 L 576.96875 537.199219 Z M 212.773438 351.878906 L 212.777344 481.605469 L 231.632812 470.722656 L 231.625 340.996094 Z M 189.746094 365.171875 L 189.746094 494.902344 L 207.210938 484.816406 L 207.207031 355.089844 Z M 166.722656 378.464844 L 166.722656 508.199219 L 184.1875 498.117188 L 184.183594 368.382812 Z M 143.703125 391.757812 L 143.703125 521.492188 L 161.160156 511.410156 L 161.160156 381.679688 Z M 119.292969 535.585938 L 138.144531 524.703125 L 138.136719 394.976562 L 119.292969 405.855469 Z M 252.554688 591.582031 L 140.226562 526.71875 L 120.6875 538 L 233.015625 602.863281 Z M 144.40625 524.300781 L 256.734375 589.164062 L 275.578125 578.285156 L 163.246094 513.421875 Z M 213.484375 484.417969 L 325.808594 549.277344 L 345.34375 538 L 233.019531 473.132812 Z M 298.597656 564.992188 L 186.273438 500.125 L 167.425781 511.011719 L 279.757812 575.871094 Z M 190.453125 497.71875 L 302.777344 562.578125 L 321.628906 551.691406 L 209.300781 486.832031 Z M 172.675781 637.703125 L 119.292969 606.882812 L 119.292969 668.527344 Z M 178.246094 637.707031 L 116.503906 673.359375 L 116.503906 602.0625 Z M 575.585938 670.9375 L 464.640625 606.878906 L 464.644531 735 Z M 256.039062 749.101562 L 368.371094 684.230469 L 348.132812 672.546875 L 235.796875 737.414062 Z M 325.109375 788.984375 L 437.449219 724.121094 L 417.210938 712.433594 L 304.875 777.300781 Z M 440.230469 725.726562 L 327.898438 790.589844 L 348.136719 802.28125 L 460.472656 737.414062 Z M 279.066406 762.398438 L 391.402344 697.53125 L 371.15625 685.84375 L 258.824219 750.707031 Z M 394.183594 699.140625 L 281.855469 764.003906 L 302.089844 775.691406 L 414.421875 710.824219 Z M 576.972656 141.574219 L 464.644531 206.433594 L 464.644531 337.777344 L 576.96875 402.640625 C 576.96875 315.609375 576.972656 228.601562 576.972656 141.574219 Z M 466.03125 604.476562 L 581.148438 670.945312 C 503.492188 715.808594 425.832031 760.683594 348.136719 805.488281 C 308.828125 782.820312 269.535156 760.117188 230.238281 737.414062 C 269.53125 714.710938 308.855469 692.0625 348.132812 669.339844 L 461.863281 735.003906 C 461.863281 691.757812 461.882812 648.519531 461.859375 605.277344 C 423.929688 583.421875 386.027344 561.515625 348.132812 539.601562 L 233.015625 606.082031 C 194.140625 583.726562 155.328125 561.242188 116.5 538.800781 L 116.5 405.847656 L 0.0078125 338.578125 L 116.5 271.3125 L 116.5 138.367188 C 155.339844 115.9375 194.144531 93.445312 233.019531 71.089844 L 348.136719 137.554688 L 463.242188 71.089844 C 540.980469 115.828125 618.589844 160.789062 696.265625 205.636719 L 581.148438 272.113281 L 693.480469 336.976562 L 809.992188 269.703125 C 809.992188 315.625 810.015625 361.542969 809.984375 407.464844 C 771.617188 385.3125 733.257812 363.136719 694.878906 340.996094 L 694.878906 473.941406 C 656.507812 451.789062 618.121094 429.644531 579.757812 407.46875 L 579.757812 538.800781 C 541.863281 560.703125 503.964844 582.621094 466.03125 604.476562 Z M 230.234375 338.578125 L 117.898438 273.714844 L 5.566406 338.578125 L 117.902344 403.445312 C 155.347656 381.824219 192.792969 360.203125 230.234375 338.578125 Z M 807.210938 274.515625 L 696.265625 338.578125 L 807.207031 402.640625 L 807.210938 274.515625 " fill-opacity="1" fill-rule="nonzero"/></g></svg>