<svg xmlns="http://www.w3.org/2000/svg" xmlns:xlink="http://www.w3.org/1999/xlink" width="500" zoomAndPan="magnify" viewBox="0 0 375 374.999991" height="500" preserveAspectRatio="xMidYMid meet" version="1.0"><defs><g/></defs><g fill="#ffffff" fill-opacity="1"><g transform="translate(14.271572, 206.388937)"><g><path d="M 29.265625 -35.03125 C 27.828125 -35.820312 26.171875 -36.414062 24.296875 -36.8125 C 22.429688 -37.207031 20.851562 -37.40625 19.5625 -37.40625 C 16.039062 -37.40625 12.941406 -36.585938 10.265625 -34.953125 C 7.585938 -33.316406 5.519531 -31.039062 4.0625 -28.125 C 2.613281 -25.21875 1.890625 -21.894531 1.890625 -18.15625 C 1.890625 -14.5625 2.550781 -11.335938 3.875 -8.484375 C 5.207031 -5.628906 7.179688 -3.375 9.796875 -1.71875 C 12.421875 -0.0703125 15.585938 0.75 19.296875 0.75 C 20.878906 0.75 22.644531 0.535156 24.59375 0.109375 C 26.550781 -0.316406 28.21875 -0.890625 29.59375 -1.609375 L 26.953125 -6.796875 C 24.253906 -5.679688 21.578125 -5.125 18.921875 -5.125 C 16.898438 -5.125 15.15625 -5.707031 13.6875 -6.875 C 12.21875 -8.039062 11.09375 -9.617188 10.3125 -11.609375 C 9.539062 -13.609375 9.15625 -15.8125 9.15625 -18.21875 C 9.15625 -20.90625 9.59375 -23.253906 10.46875 -25.265625 C 11.351562 -27.285156 12.566406 -28.832031 14.109375 -29.90625 C 15.660156 -30.988281 17.40625 -31.53125 19.34375 -31.53125 C 20.5625 -31.53125 21.582031 -31.445312 22.40625 -31.28125 C 23.238281 -31.125 24.359375 -30.828125 25.765625 -30.390625 L 27.109375 -30.015625 Z M 29.265625 -35.03125 "/></g></g></g><g fill="#ffffff" fill-opacity="1"><g transform="translate(44.661044, 206.388937)"><g><path d="M 19.828125 -37.515625 C 16.304688 -37.441406 13.179688 -36.578125 10.453125 -34.921875 C 7.722656 -33.265625 5.613281 -30.984375 4.125 -28.078125 C 2.632812 -25.171875 1.890625 -21.863281 1.890625 -18.15625 C 1.890625 -14.601562 2.597656 -11.394531 4.015625 -8.53125 C 5.429688 -5.675781 7.492188 -3.414062 10.203125 -1.75 C 12.921875 -0.0820312 16.128906 0.75 19.828125 0.75 C 23.390625 0.675781 26.523438 -0.171875 29.234375 -1.796875 C 31.941406 -3.429688 34.050781 -5.695312 35.5625 -8.59375 C 37.070312 -11.488281 37.828125 -14.800781 37.828125 -18.53125 C 37.828125 -22.09375 37.117188 -25.3125 35.703125 -28.1875 C 34.285156 -31.0625 32.207031 -33.332031 29.46875 -35 C 26.738281 -36.675781 23.523438 -37.515625 19.828125 -37.515625 Z M 9.15625 -18.21875 C 9.15625 -20.875 9.648438 -23.21875 10.640625 -25.25 C 11.628906 -27.28125 12.941406 -28.84375 14.578125 -29.9375 C 16.210938 -31.03125 18 -31.578125 19.9375 -31.578125 C 22.0625 -31.578125 23.929688 -31.019531 25.546875 -29.90625 C 27.160156 -28.789062 28.398438 -27.242188 29.265625 -25.265625 C 30.128906 -23.296875 30.5625 -21.050781 30.5625 -18.53125 C 30.5625 -15.625 30.082031 -13.15625 29.125 -11.125 C 28.175781 -9.09375 26.882812 -7.582031 25.25 -6.59375 C 23.613281 -5.613281 21.789062 -5.125 19.78125 -5.125 C 17.625 -5.125 15.742188 -5.671875 14.140625 -6.765625 C 12.546875 -7.859375 11.316406 -9.398438 10.453125 -11.390625 C 9.585938 -13.390625 9.15625 -15.664062 9.15625 -18.21875 Z M 9.15625 -18.21875 "/></g></g></g><g fill="#ffffff" fill-opacity="1"><g transform="translate(84.372115, 206.388937)"><g><path d="M 29.859375 0 L 36.921875 0 L 36.921875 -36.640625 L 32.65625 -36.640625 L 21.390625 -19.71875 L 9 -36.640625 L 4.578125 -36.640625 L 4.578125 0 L 11.53125 0 L 11.53125 -22.359375 L 20.3125 -11.09375 L 23.015625 -11.484375 L 29.859375 -21.125 Z M 29.859375 0 "/></g></g></g><g fill="#ffffff" fill-opacity="1"><g transform="translate(125.861295, 206.388937)"><g><path d="M 29.859375 0 L 36.921875 0 L 36.921875 -36.640625 L 32.65625 -36.640625 L 21.390625 -19.71875 L 9 -36.640625 L 4.578125 -36.640625 L 4.578125 0 L 11.53125 0 L 11.53125 -22.359375 L 20.3125 -11.09375 L 23.015625 -11.484375 L 29.859375 -21.125 Z M 29.859375 0 "/></g></g></g><g fill="#545454" fill-opacity="1"><g transform="translate(167.341282, 206.388937)"><g><path d="M 25.765625 0 L 33.09375 0 L 21.015625 -18.265625 L 33.796875 -36.640625 L 26.515625 -36.640625 L 17.515625 -23.0625 L 7.28125 -37.71875 L 1.1875 -35.359375 L 13.359375 -18.53125 L 0.53125 0 L 7.703125 0 L 16.921875 -13.796875 Z M 25.765625 0 "/></g></g></g><g fill="#ffffff" fill-opacity="1"><g transform="translate(201.660503, 206.388937)"><g><path d="M 4.09375 -13.3125 C 4.09375 -10.6875 4.703125 -8.3125 5.921875 -6.1875 C 7.148438 -4.070312 8.894531 -2.410156 11.15625 -1.203125 C 13.414062 -0.00390625 16.035156 0.59375 19.015625 0.59375 C 22.035156 0.59375 24.695312 -0.00390625 27 -1.203125 C 29.300781 -2.410156 31.078125 -4.066406 32.328125 -6.171875 C 33.585938 -8.273438 34.21875 -10.65625 34.21875 -13.3125 L 34.21875 -36.640625 L 27.15625 -36.640625 L 27.15625 -13.84375 C 27.15625 -11.007812 26.425781 -8.847656 24.96875 -7.359375 C 23.519531 -5.867188 21.570312 -5.125 19.125 -5.125 C 16.6875 -5.125 14.738281 -5.847656 13.28125 -7.296875 C 11.820312 -8.753906 11.09375 -10.9375 11.09375 -13.84375 L 11.09375 -36.640625 L 4.046875 -36.640625 Z M 4.09375 -13.3125 "/></g></g></g><g fill="#ffffff" fill-opacity="1"><g transform="translate(239.916758, 206.388937)"><g><path d="M 28.515625 0 L 35.515625 0 L 35.515625 -36.640625 L 28.515625 -36.640625 L 28.515625 -12.171875 L 11.53125 -36.640625 L 4.578125 -36.640625 L 4.578125 0 L 11.53125 0 L 11.53125 -24.515625 Z M 28.515625 0 "/></g></g></g><g fill="#ffffff" fill-opacity="1"><g transform="translate(280.005007, 206.388937)"><g><path d="M 4.578125 -36.640625 L 4.578125 0 L 11.53125 0 L 11.53125 -36.640625 Z M 4.578125 -36.640625 "/></g></g></g><g fill="#ffffff" fill-opacity="1"><g transform="translate(296.11574, 206.388937)"><g><path d="M 0.53125 -31.15625 L 11.6875 -31.15625 L 11.6875 0 L 18.75 0 L 18.75 -31.15625 L 31.3125 -31.15625 L 30.171875 -36.640625 L 0.53125 -36.640625 Z M 0.53125 -31.15625 "/></g></g></g><g fill="#ffffff" fill-opacity="1"><g transform="translate(327.960027, 206.388937)"><g><path d="M 32.234375 -36.640625 L 24.84375 -36.640625 L 15.953125 -21.34375 L 7.4375 -37.40625 L 0.53125 -35.40625 L 12.5 -14.28125 L 12.5 0 L 19.515625 0 L 19.515625 -14.015625 Z M 32.234375 -36.640625 "/></g></g></g></svg>