<svg xmlns="http://www.w3.org/2000/svg" xmlns:xlink="http://www.w3.org/1999/xlink" width="500" zoomAndPan="magnify" viewBox="0 0 375 374.999991" height="500" preserveAspectRatio="xMidYMid meet" version="1.0"><defs><g/></defs><g fill="#fbfaf9" fill-opacity="1"><g transform="translate(10.186483, 213.249173)"><g><path d="M 75.203125 -14.375 L 52.65625 -51.902344 L 70.96875 -78.988281 C 74.902344 -84.886719 80.347656 -88.972656 86.855469 -89.730469 L 86.855469 -93.96875 C 77.320312 -93.511719 67.789062 -93.511719 58.257812 -93.96875 L 58.257812 -89.730469 C 64.308594 -88.972656 68.394531 -85.492188 64.914062 -80.347656 L 49.480469 -57.347656 L 34.800781 -81.863281 C 32.078125 -86.25 34.347656 -88.972656 40.25 -89.730469 L 40.25 -93.96875 C 27.238281 -93.511719 15.433594 -93.511719 3.78125 -93.96875 L 3.78125 -89.730469 C 10.59375 -88.972656 13.921875 -85.644531 17.855469 -79.136719 L 39.644531 -42.820312 L 20.730469 -14.675781 C 16.492188 -8.324219 11.046875 -4.691406 3.78125 -4.238281 L 3.78125 0 C 13.769531 -0.453125 23 -0.453125 32.382812 0 L 32.382812 -4.238281 C 26.480469 -4.84375 22.847656 -7.566406 26.933594 -13.617188 L 42.972656 -37.375 L 58.40625 -11.800781 C 61.28125 -6.960938 57.652344 -4.84375 52.050781 -4.238281 L 52.050781 0 C 65.066406 -0.453125 77.019531 -0.453125 88.671875 0 L 88.671875 -4.238281 C 81.863281 -4.691406 79.441406 -7.566406 75.203125 -14.375 Z M 75.203125 -14.375 "/></g></g></g><path stroke-linecap="butt" transform="matrix(0.751045, -0.0065246, 0.00651527, 0.749972, 83.624721, 120.303134)" fill="none" stroke-linejoin="miter" d="M 0.00119701 3.502215 L 305.575259 3.499088 " stroke="#fbfaf9" stroke-width="7" stroke-opacity="1" stroke-miterlimit="4"/><path stroke-linecap="butt" transform="matrix(0.750969, -0.00652331, 0.00651465, 0.749972, 83.624735, 209.106548)" fill="none" stroke-linejoin="miter" d="M 0.00121132 3.498704 L 305.606481 3.500531 " stroke="#fbfaf9" stroke-width="7" stroke-opacity="1" stroke-miterlimit="4"/><g fill="#fbfaf9" fill-opacity="1"><g transform="translate(83.57518, 172.537836)"><g><path d="M 8.109375 0.109375 C 6.765625 0.109375 5.550781 -0.1875 4.46875 -0.78125 C 3.394531 -1.375 2.550781 -2.195312 1.9375 -3.25 C 1.320312 -4.300781 1.015625 -5.484375 1.015625 -6.796875 C 1.015625 -8.097656 1.320312 -9.273438 1.9375 -10.328125 C 2.550781 -11.390625 3.398438 -12.21875 4.484375 -12.8125 C 5.566406 -13.40625 6.78125 -13.703125 8.125 -13.703125 C 9.132812 -13.703125 10.066406 -13.53125 10.921875 -13.1875 C 11.773438 -12.851562 12.5 -12.363281 13.09375 -11.71875 L 12.1875 -10.8125 C 11.125 -11.882812 9.785156 -12.421875 8.171875 -12.421875 C 7.097656 -12.421875 6.117188 -12.171875 5.234375 -11.671875 C 4.359375 -11.179688 3.671875 -10.507812 3.171875 -9.65625 C 2.671875 -8.8125 2.421875 -7.859375 2.421875 -6.796875 C 2.421875 -5.734375 2.671875 -4.773438 3.171875 -3.921875 C 3.671875 -3.066406 4.359375 -2.394531 5.234375 -1.90625 C 6.117188 -1.414062 7.097656 -1.171875 8.171875 -1.171875 C 9.796875 -1.171875 11.132812 -1.710938 12.1875 -2.796875 L 13.09375 -1.875 C 12.5 -1.226562 11.769531 -0.734375 10.90625 -0.390625 C 10.050781 -0.0546875 9.117188 0.109375 8.109375 0.109375 Z M 8.109375 0.109375 "/></g></g></g><g fill="#fbfaf9" fill-opacity="1"><g transform="translate(108.197326, 172.537836)"><g><path d="M 8.15625 0.109375 C 6.800781 0.109375 5.578125 -0.1875 4.484375 -0.78125 C 3.398438 -1.382812 2.550781 -2.207031 1.9375 -3.25 C 1.320312 -4.300781 1.015625 -5.484375 1.015625 -6.796875 C 1.015625 -8.097656 1.320312 -9.269531 1.9375 -10.3125 C 2.550781 -11.363281 3.398438 -12.191406 4.484375 -12.796875 C 5.578125 -13.398438 6.800781 -13.703125 8.15625 -13.703125 C 9.5 -13.703125 10.707031 -13.40625 11.78125 -12.8125 C 12.863281 -12.21875 13.710938 -11.390625 14.328125 -10.328125 C 14.953125 -9.273438 15.265625 -8.097656 15.265625 -6.796875 C 15.265625 -5.484375 14.953125 -4.300781 14.328125 -3.25 C 13.710938 -2.195312 12.863281 -1.375 11.78125 -0.78125 C 10.707031 -0.1875 9.5 0.109375 8.15625 0.109375 Z M 8.15625 -1.171875 C 9.226562 -1.171875 10.195312 -1.410156 11.0625 -1.890625 C 11.925781 -2.378906 12.601562 -3.050781 13.09375 -3.90625 C 13.59375 -4.769531 13.84375 -5.734375 13.84375 -6.796875 C 13.84375 -7.859375 13.59375 -8.816406 13.09375 -9.671875 C 12.601562 -10.535156 11.925781 -11.207031 11.0625 -11.6875 C 10.195312 -12.175781 9.226562 -12.421875 8.15625 -12.421875 C 7.082031 -12.421875 6.109375 -12.175781 5.234375 -11.6875 C 4.359375 -11.207031 3.671875 -10.535156 3.171875 -9.671875 C 2.671875 -8.816406 2.421875 -7.859375 2.421875 -6.796875 C 2.421875 -5.734375 2.671875 -4.769531 3.171875 -3.90625 C 3.671875 -3.050781 4.359375 -2.378906 5.234375 -1.890625 C 6.109375 -1.410156 7.082031 -1.171875 8.15625 -1.171875 Z M 8.15625 -1.171875 "/></g></g></g><g fill="#fbfaf9" fill-opacity="1"><g transform="translate(135.147409, 172.537836)"><g><path d="M 16.328125 -13.578125 L 16.328125 0 L 14.9375 0 L 14.9375 -10.875 L 9.609375 -1.734375 L 8.921875 -1.734375 L 3.59375 -10.8125 L 3.59375 0 L 2.21875 0 L 2.21875 -13.578125 L 3.390625 -13.578125 L 9.296875 -3.515625 L 15.140625 -13.578125 Z M 16.328125 -13.578125 "/></g></g></g><g fill="#fbfaf9" fill-opacity="1"><g transform="translate(164.347832, 172.537836)"><g><path d="M 16.328125 -13.578125 L 16.328125 0 L 14.9375 0 L 14.9375 -10.875 L 9.609375 -1.734375 L 8.921875 -1.734375 L 3.59375 -10.8125 L 3.59375 0 L 2.21875 0 L 2.21875 -13.578125 L 3.390625 -13.578125 L 9.296875 -3.515625 L 15.140625 -13.578125 Z M 16.328125 -13.578125 "/></g></g></g><g fill="#fbfaf9" fill-opacity="1"><g transform="translate(193.548255, 172.537836)"><g><path d="M 10.734375 0 L 6.34375 -5.984375 L 1.984375 0 L 0.328125 0 L 5.484375 -6.984375 L 0.65625 -13.578125 L 2.3125 -13.578125 L 6.40625 -8.03125 L 10.484375 -13.578125 L 12.03125 -13.578125 L 7.21875 -7.03125 L 12.40625 0 Z M 10.734375 0 "/></g></g></g><g fill="#fbfaf9" fill-opacity="1"><g transform="translate(216.94823, 172.537836)"><g><path d="M 7.6875 0.109375 C 5.925781 0.109375 4.550781 -0.390625 3.5625 -1.390625 C 2.582031 -2.398438 2.09375 -3.867188 2.09375 -5.796875 L 2.09375 -13.578125 L 3.53125 -13.578125 L 3.53125 -5.859375 C 3.53125 -4.285156 3.882812 -3.109375 4.59375 -2.328125 C 5.3125 -1.554688 6.34375 -1.171875 7.6875 -1.171875 C 9.039062 -1.171875 10.070312 -1.554688 10.78125 -2.328125 C 11.5 -3.109375 11.859375 -4.285156 11.859375 -5.859375 L 11.859375 -13.578125 L 13.25 -13.578125 L 13.25 -5.796875 C 13.25 -3.867188 12.757812 -2.398438 11.78125 -1.390625 C 10.8125 -0.390625 9.445312 0.109375 7.6875 0.109375 Z M 7.6875 0.109375 "/></g></g></g><g fill="#fbfaf9" fill-opacity="1"><g transform="translate(242.986534, 172.537836)"><g><path d="M 13.5625 -13.578125 L 13.5625 0 L 12.375 0 L 3.640625 -11.015625 L 3.640625 0 L 2.21875 0 L 2.21875 -13.578125 L 3.390625 -13.578125 L 12.140625 -2.5625 L 12.140625 -13.578125 Z M 13.5625 -13.578125 "/></g></g></g><g fill="#fbfaf9" fill-opacity="1"><g transform="translate(269.432214, 172.537836)"><g><path d="M 2.21875 -13.578125 L 3.640625 -13.578125 L 3.640625 0 L 2.21875 0 Z M 2.21875 -13.578125 "/></g></g></g><g fill="#fbfaf9" fill-opacity="1"><g transform="translate(285.964775, 172.537836)"><g><path d="M 4.859375 -12.34375 L 0.078125 -12.34375 L 0.078125 -13.578125 L 11.0625 -13.578125 L 11.0625 -12.34375 L 6.28125 -12.34375 L 6.28125 0 L 4.859375 0 Z M 4.859375 -12.34375 "/></g></g></g><g fill="#fbfaf9" fill-opacity="1"><g transform="translate(307.773993, 172.537836)"><g><path d="M 6.875 -4.703125 L 6.875 0 L 5.453125 0 L 5.453125 -4.703125 L 0.015625 -13.578125 L 1.546875 -13.578125 L 6.203125 -5.953125 L 10.875 -13.578125 L 12.296875 -13.578125 Z M 6.875 -4.703125 "/></g></g></g></svg>